<svg width="50" height="50" viewBox="0 0 50 50" fill="none" xmlns="http://www.w3.org/2000/svg">
<g id="icon_youtube" clip-path="url(#clip0_3_64)">
<g id="Group">
<path id="Vector" fill-rule="evenodd" clip-rule="evenodd" d="M25 50C38.8071 50 50 38.8071 50 25C50 11.1929 38.8071 0 25 0C11.1929 0 0 11.1929 0 25C0 38.8071 11.1929 50 25 50Z" fill="#FF0002"/>
<path id="Vector_2" fill-rule="evenodd" clip-rule="evenodd" d="M21.5583 29.3541L21.5573 19.9221L30.5635 24.6544L21.5583 29.3541ZM41.3333 18.2876C41.3333 18.2876 41.0073 15.9745 40.0083 14.9558C38.7406 13.6183 37.3198 13.612 36.6687 13.5344C32.0041 13.1945 25.0073 13.1945 25.0073 13.1945H24.9927C24.9927 13.1945 17.9958 13.1945 13.3312 13.5344C12.6792 13.612 11.2594 13.6183 9.99062 14.9558C8.99166 15.9745 8.66666 18.2876 8.66666 18.2876C8.66666 18.2876 8.33333 21.0047 8.33333 23.7207V26.2678C8.33333 28.9849 8.66666 31.7009 8.66666 31.7009C8.66666 31.7009 8.99166 34.014 9.99062 35.0327C11.2594 36.3702 12.925 36.3283 13.6667 36.4678C16.3333 36.7258 25 36.8056 25 36.8056C25 36.8056 32.0041 36.7951 36.6687 36.4552C37.3198 36.3765 38.7406 36.3702 40.0083 35.0327C41.0073 34.014 41.3333 31.7009 41.3333 31.7009C41.3333 31.7009 41.6666 28.9849 41.6666 26.2678V23.7207C41.6666 21.0047 41.3333 18.2876 41.3333 18.2876Z" fill="white"/>
</g>
</g>
<defs>
<clipPath id="clip0_3_64">
<rect width="50" height="50" fill="white"/>
</clipPath>
</defs>
</svg>
