<svg width="50" height="50" viewBox="0 0 50 50" fill="none" xmlns="http://www.w3.org/2000/svg">
<g id="icon_twitter" clip-path="url(#clip0_3_68)">
<g id="Group">
<path id="Vector" fill-rule="evenodd" clip-rule="evenodd" d="M25 50C38.8071 50 50 38.8071 50 25C50 11.1929 38.8071 0 25 0C11.1929 0 0 11.1929 0 25C0 38.8071 11.1929 50 25 50Z" fill="#4DC8F1"/>
<path id="Vector_2" fill-rule="evenodd" clip-rule="evenodd" d="M38.2545 17.8575C38.6861 27.4763 31.5138 38.2009 18.8162 38.2009C14.9544 38.2009 11.3597 37.0681 8.33331 35.1278C11.9608 35.5554 15.5826 34.5496 18.4575 32.2956C15.4655 32.2407 12.9396 30.2635 12.0698 27.5468C13.1411 27.7515 14.1952 27.6918 15.1576 27.4305C11.8683 26.7687 9.59873 23.8062 9.67244 20.6382C10.5947 21.1501 11.6496 21.458 12.7709 21.4924C9.72486 19.4579 8.86241 15.4364 10.6545 12.3626C14.0265 16.5004 19.0652 19.2229 24.7493 19.5087C23.7526 15.23 26.9976 11.1111 31.4114 11.1111C33.3787 11.1111 35.1561 11.9408 36.4026 13.2701C37.9605 12.9638 39.4241 12.3945 40.7452 11.6107C40.2349 13.2078 39.1505 14.5486 37.7385 15.3939C39.1219 15.2292 40.4397 14.8615 41.6666 14.3176C40.7501 15.6895 39.5903 16.8935 38.2545 17.8575Z" fill="white"/>
</g>
</g>
<defs>
<clipPath id="clip0_3_68">
<rect width="50" height="50" fill="white"/>
</clipPath>
</defs>
</svg>
