<svg width="50" height="50" viewBox="0 0 50 50" fill="none" xmlns="http://www.w3.org/2000/svg">
<g id="icon_vk" clip-path="url(#clip0_3_60)">
<g id="Group">
<path id="Vector" fill-rule="evenodd" clip-rule="evenodd" d="M25 50C38.8071 50 50 38.8071 50 25C50 11.1929 38.8071 0 25 0C11.1929 0 0 11.1929 0 25C0 38.8071 11.1929 50 25 50Z" fill="#3E6FA1"/>
<path id="Vector_2" fill-rule="evenodd" clip-rule="evenodd" d="M26.9986 30.8295C27.0632 29.8368 27.5107 28.2916 28.6293 29.1343C29.3051 29.6448 29.8414 30.3843 30.4486 31.0335C31.0414 31.6658 31.7486 32.2182 33.0664 32.1843C33.8478 32.1642 36.0922 32.2384 36.6769 32.0255C38.4438 31.3843 35.3132 28.4545 34.5486 27.7989C34.2269 27.5231 33.8664 27.1303 33.5906 26.8384C33.2494 26.4779 33.0857 26.1126 33.3567 25.5473L34.5414 23.8811C34.8922 23.4981 36.1898 21.6424 36.5035 21.1343C36.9551 20.4021 37.8817 18.9626 36.6873 18.7319C36.0156 18.6021 33.8349 18.7231 33.0051 18.7287C31.3704 18.7392 31.7027 18.5585 30.8962 20.4206C30.3591 21.6593 28.7011 24.5787 27.822 24.9118C26.1922 25.5295 27.4672 19.6182 26.7801 18.5956C26.3632 17.9755 24.4309 18.0529 23.5269 18.065C22.4769 18.0779 21.0253 18.1335 20.7188 18.9997C20.8124 19.0795 20.7099 19.0255 20.8914 19.0997C21.022 19.1529 21.2261 19.165 21.4478 19.2835C21.6446 19.3876 21.8236 19.5706 21.9261 19.7352C22.4212 20.5271 22.3615 23.8634 21.9519 24.6723C21.1849 26.1835 18.9446 21.9376 18.5607 21.1811C18.0124 20.1013 17.797 19.0513 17.1761 18.7827C16.7261 18.5892 14.1753 18.6973 13.489 18.7085C12.8607 18.7182 12.3188 18.8174 12.5575 19.5618C12.6777 19.9368 12.9632 20.465 13.1357 20.8432C14.1995 23.1779 15.8624 26.044 17.3277 27.986C18.9817 30.1771 21.4269 32.1182 24.518 32.1432C26.7382 32.161 26.9059 32.2593 26.9986 30.8295Z" fill="white"/>
</g>
</g>
<defs>
<clipPath id="clip0_3_60">
<rect width="50" height="50" fill="white"/>
</clipPath>
</defs>
</svg>
