<?xml version="1.0" encoding="utf-8"?>
<!-- Generator: Adobe Illustrator 27.2.0, SVG Export Plug-In . SVG Version: 6.00 Build 0)  -->
<svg version="1.1" id="Слой_1" xmlns="http://www.w3.org/2000/svg" xmlns:xlink="http://www.w3.org/1999/xlink" x="0px" y="0px"
	 viewBox="0 0 1920 1080" style="enable-background:new 0 0 1920 1080;" xml:space="preserve">
<style type="text/css">
	.st0{fill:#0089F4;stroke:#0089F4;stroke-miterlimit:10;}
	.st1{fill:#006EF4;stroke:#006EF4;stroke-miterlimit:10;}
	.st2{fill:#0055F4;stroke:#0055F4;stroke-miterlimit:10;}
</style>
<polygon class="st0" points="0,0 283.9,1080 0,655.11 "/>
<polygon class="st1" points="0,655.11 100.34,1080 283.9,1080 "/>
<polygon class="st2" points="0,655.11 0,1080 100.34,1080 "/>
<polygon class="st2" points="283.9,1080 353.53,0 0,0 "/>
<polygon class="st1" points="322.42,482.56 776.03,1080 283.9,1080 "/>
<polygon class="st1" points="322.42,482.56 791.86,0 353.53,0 "/>
<polygon class="st0" points="791.86,0 563.58,800.18 322.42,482.56 "/>
<polygon class="st2" points="776.03,1080 688.94,360.76 563.58,800.18 "/>
<polygon class="st1" points="776.03,1080 1076.69,0 791.86,0 688.94,360.76 "/>
<polygon class="st0" points="950.89,451.9 1138.41,1080 776.03,1080 "/>
<polygon class="st2" points="1138.41,1080 1076.69,0 950.89,451.9 "/>
<polygon class="st0" points="1138.41,1080 1469.13,0 1076.69,0 "/>
<polygon class="st2" points="1469.13,0 1401.09,1080 1138.41,1080 "/>
<polygon class="st1" points="1401.09,1080 1920,0 1469.13,0 "/>
<polygon class="st0" points="1401.09,1080 1920,572.82 1920,0 "/>
<polygon class="st2" points="1401.09,1080 1730.23,1080 1920,572.82 "/>
<polygon class="st1" points="1730.23,1080 1920,572.82 1920,1080 "/>
</svg>
